<?xml version="1.0" encoding="UTF-8" standalone="no"?>
<!-- Created with Inkscape (http://www.inkscape.org/) -->

<svg
   xmlns:dc="http://purl.org/dc/elements/1.1/"
   xmlns:cc="http://creativecommons.org/ns#"
   xmlns:rdf="http://www.w3.org/1999/02/22-rdf-syntax-ns#"
   xmlns:svg="http://www.w3.org/2000/svg"
   xmlns="http://www.w3.org/2000/svg"
   xmlns:sodipodi="http://sodipodi.sourceforge.net/DTD/sodipodi-0.dtd"
   xmlns:inkscape="http://www.inkscape.org/namespaces/inkscape"
   width="60"
   height="60"
   viewBox="0 0 60 60.000001"
   id="svg2"
   version="1.1"
   inkscape:version="0.91 r13725"
   sodipodi:docname="favicon-svg.svg">
  <defs
     id="defs4" />
  <sodipodi:namedview
     id="base"
     pagecolor="#ffffff"
     bordercolor="#666666"
     borderopacity="1.0"
     inkscape:pageopacity="0.0"
     inkscape:pageshadow="2"
     inkscape:zoom="1.5308252"
     inkscape:cx="60.380527"
     inkscape:cy="5.0610433"
     inkscape:document-units="px"
     inkscape:current-layer="layer1"
     showgrid="false"
     units="px"
     inkscape:window-width="1366"
     inkscape:window-height="705"
     inkscape:window-x="-8"
     inkscape:window-y="-8"
     inkscape:window-maximized="1" />
  <metadata
     id="metadata7">
    <rdf:RDF>
      <cc:Work
         rdf:about="">
        <dc:format>image/svg+xml</dc:format>
        <dc:type
           rdf:resource="http://purl.org/dc/dcmitype/StillImage" />
        <dc:title></dc:title>
      </cc:Work>
    </rdf:RDF>
  </metadata>
  <g
     inkscape:label="Layer 1"
     inkscape:groupmode="layer"
     id="layer1"
     transform="translate(0,-992.36216)">
    <text
       xml:space="preserve"
       style="font-style:normal;font-variant:normal;font-weight:normal;font-stretch:normal;font-size:40px;line-height:125%;font-family:'SquareFont Outline';-inkscape-font-specification:'SquareFont Outline';letter-spacing:0px;word-spacing:0px;fill:#000000;fill-opacity:1;stroke:none;stroke-width:1px;stroke-linecap:butt;stroke-linejoin:miter;stroke-opacity:1"
       x="-103.86555"
       y="1077.1854"
       id="text4150"
       sodipodi:linespacing="125%"><tspan
         sodipodi:role="line"
         id="tspan4152"
         x="-103.86555"
         y="1077.1854" /></text>
    <rect
       style="opacity:1;fill:#000000;fill-opacity:1;fill-rule:nonzero;stroke:none;stroke-width:10;stroke-miterlimit:4;stroke-dasharray:none;stroke-opacity:1"
       id="rect4205"
       width="60"
       height="60"
       x="0"
       y="992.36218" />
    <g
       style="font-style:normal;font-weight:normal;font-size:40px;line-height:125%;font-family:sans-serif;letter-spacing:0px;word-spacing:0px;fill:#ffffff;fill-opacity:1;stroke:none;stroke-width:1px;stroke-linecap:butt;stroke-linejoin:miter;stroke-opacity:1"
       id="text4184"
       transform="matrix(1.2498692,0,0,1.2498692,123.44889,-177.74402)">
      <path
         d="m -67.039886,950.04138 0,15.13672 q 0,2.85645 -0.952149,4.54102 -1.464844,2.6123 -4.248047,4.12597 -2.758789,1.51367 -5.810547,1.51367 -3.930664,0 -10.717773,-3.32031 l 0,-8.22754 q 0,-1.80664 0.683594,-2.56347 0.708007,-0.78125 1.831054,-0.78125 1.098633,0 1.782227,0.78125 0.708008,0.75683 0.708008,2.56347 l 0,4.90723 q 3.442383,1.63574 5.883789,1.63574 1.293945,0 2.685547,-0.58594 1.391601,-0.61035 2.099609,-1.44043 0.708008,-0.83007 0.927734,-1.63574 0.122071,-0.43945 0.122071,-2.09961 l 0,-14.55078 -6.079102,0 q -1.80664,0 -2.58789,-0.68359 -0.756836,-0.70801 -0.756836,-1.83106 0,-1.12304 0.756836,-1.80664 0.78125,-0.70801 2.58789,-0.70801 l 14.013672,0.0244 q 1.806641,0 2.563477,0.68359 0.78125,0.6836 0.78125,1.80664 0,1.12305 -0.78125,1.83106 -0.756836,0.68359 -2.563477,0.68359 l -2.929687,0 z"
         style="font-style:normal;font-variant:normal;font-weight:bold;font-stretch:normal;font-size:50px;font-family:monospace;-inkscape-font-specification:'monospace Bold';fill:#ffffff"
         id="path4201"
         inkscape:connector-curvature="0" />
    </g>
  </g>
</svg>
