<?xml version="1.0" standalone="no"?>
<!DOCTYPE svg PUBLIC "-//W3C//DTD SVG 20010904//EN"
 "http://www.w3.org/TR/2001/REC-SVG-20010904/DTD/svg10.dtd">
<svg version="1.0" xmlns="http://www.w3.org/2000/svg"
 width="700.000000pt" height="700.000000pt" viewBox="0 0 700.000000 700.000000"
 preserveAspectRatio="xMidYMid meet">
<metadata>
Created by potrace 1.11, written by Peter Selinger 2001-2013
</metadata>
<g transform="translate(0.000000,700.000000) scale(0.100000,-0.100000)"
fill="#000000" stroke="none">
<path d="M0 3500 l0 -3500 3500 0 3500 0 0 3500 0 3500 -3500 0 -3500 0 0
-3500z m5180 2200 c225 -30 346 -139 358 -326 7 -117 -26 -209 -105 -286 -89
-87 -195 -108 -543 -108 l-259 0 -4 -1207 c-5 -1298 -4 -1272 -57 -1461 -65
-231 -260 -494 -499 -672 -123 -92 -334 -204 -476 -253 -419 -144 -811 -128
-1355 58 -226 77 -440 165 -682 279 l-98 46 0 649 c0 692 3 742 50 848 60 136
228 215 387 183 76 -16 106 -32 169 -92 52 -49 80 -102 105 -198 8 -29 13
-198 16 -476 l5 -432 117 -50 c440 -188 759 -227 1046 -130 90 31 243 112 308
164 101 81 193 219 218 329 9 36 13 386 16 1233 l4 1182 -494 0 c-525 0 -587
4 -689 49 -137 59 -214 214 -187 379 24 155 120 249 292 286 50 11 272 14
1172 15 665 0 1140 -4 1185 -9z"/>
</g>
</svg>
