<?xml version="1.0" encoding="UTF-8" standalone="no"?>
<svg
   xmlns:dc="http://purl.org/dc/elements/1.1/"
   xmlns:cc="http://creativecommons.org/ns#"
   xmlns:rdf="http://www.w3.org/1999/02/22-rdf-syntax-ns#"
   xmlns:svg="http://www.w3.org/2000/svg"
   xmlns="http://www.w3.org/2000/svg"
   version="1.1"
   id="svg4145"
   viewBox="0 0 600.00001 400.00001"
   height="400"
   width="600">
  <defs
     id="defs4147" />
  <metadata
     id="metadata4150">
    <rdf:RDF>
      <cc:Work
         rdf:about="">
        <dc:format>image/svg+xml</dc:format>
        <dc:type
           rdf:resource="http://purl.org/dc/dcmitype/StillImage" />
        <dc:title></dc:title>
      </cc:Work>
    </rdf:RDF>
  </metadata>
  <rect
     style="opacity:1;fill:#1a1a1a;fill-opacity:1;fill-rule:nonzero;stroke:none;stroke-width:10;stroke-miterlimit:4;stroke-dasharray:none;stroke-opacity:1"
     id="rect4693"
     width="600"
     height="400"
     x="0"
     y="2.2617187e-005" />
  <g
     transform="matrix(1.1939294,0,0,1.1939294,-37.607731,-41.609252)"
     id="g4176">
    <path
       style="fill:#f9ba48"
       d="m 252.04319,194.42093 5.06081,-1.8403 17.72547,17.72546 17.72546,17.72547 -1.8403,5.06081 c -12.42011,34.15704 -48.47354,53.57847 -83.83309,45.16164 l 0,0 0,0 c -8.41746,-35.36016 11.00397,-71.4136 45.16165,-83.83308 z"
       id="path4319" />
    <g
       id="g5029"
       style="fill:#f9f9f9"
       transform="matrix(7.8641147,0,0,7.8641147,141.18295,5.7619078)">
      <path
         id="path4321"
         d="m 9.2130175,21.622013 4.2449925,-3.301252 3.37418,0.37498 c 0.04961,-0.06916 0.100657,-0.137522 0.162286,-0.19915 0.489101,-0.489101 1.217503,-0.587114 1.809185,-0.30654 l 0.733291,-0.733291 c -0.255811,-2.103383 0.468024,-4.224717 1.96546,-5.722153 2.69274,-2.6927404 7.074534,-2.6927404 9.767274,0 2.69274,2.69274 2.69266,7.074454 -1.6e-4,9.767274 -1.497757,1.497757 -3.618771,2.221271 -5.722154,1.96546 l -0.73329,0.733291 c 0.280573,0.591682 0.182561,1.320084 -0.30654,1.809185 -0.06163,0.06163 -0.129989,0.112678 -0.19875,0.161885 l 0.37498,3.37418 -3.301251,4.244993 -2.213417,-4.869292 c -1.632634,0.927873 -3.657398,1.294519 -5.63496,0.99399 l -0.387321,-0.05826 -0.05866,-0.386921 c -0.300609,-1.977481 0.06572,-4.002726 0.99399,-5.63496 L 9.2130175,21.622013 Z M 16.618775,21.12618 c -0.207005,0.207004 -0.207406,0.543997 0,0.751403 l 4.507935,4.507935 c 0.207405,0.207405 0.544399,0.207005 0.751403,0 0.207004,-0.207004 0.207405,-0.543997 0,-0.751402 L 17.370177,21.12618 c -0.207485,-0.207325 -0.544398,-0.207005 -0.751402,0 z m 3.756613,6.761903 c 0.207004,-0.207004 0.207405,-0.543997 0,-0.751402 l -4.507936,-4.507936 c -0.207325,-0.207325 -0.544398,-0.207004 -0.751403,0 -0.207004,0.207004 -0.207405,0.543998 0,0.751403 l 4.507936,4.507935 c 0.207405,0.207406 0.544398,0.207005 0.751403,0 z m -9.123341,-6.506413 2.702117,1.228001 c 0.06876,-0.267831 0.201394,-0.52292 0.410643,-0.732169 0.28963,-0.289629 0.664529,-0.438371 1.044318,-0.458326 0.01955,-0.38019 0.168697,-0.754689 0.458327,-1.044319 0.201715,-0.201715 0.445905,-0.330982 0.703238,-0.401907 -0.01803,-0.07958 -0.02669,-0.160363 -0.0319,-0.241546 l -2.769756,-0.307661 -2.516991,1.957927 z m 19.266156,-0.631111 c 2.278411,-2.278411 2.278411,-5.986219 0,-8.264629 -2.278411,-2.278411 -5.986218,-2.278411 -8.264629,0 -1.321607,1.321606 -1.930919,3.218626 -1.629268,5.074052 l 0.04352,0.268232 -1.043997,1.043998 0.751322,0.751323 3.756694,-3.756694 -0.375702,-0.375701 c -0.621334,-0.621334 -0.621414,-1.632634 0,-2.254048 0.621414,-0.621414 1.632634,-0.621414 2.254048,0 0.621334,0.621334 0.621414,1.632634 0,2.254048 l -0.375701,0.375701 1.502645,1.502646 0.375701,-0.375702 c 0.621334,-0.621334 1.632634,-0.621414 2.254048,0 0.621414,0.621414 0.621414,1.632634 0,2.254048 -0.621414,0.621414 -1.632634,0.621414 -2.254048,0 l -0.375701,-0.375701 -3.756613,3.756613 0.751323,0.751323 1.043997,-1.043998 0.268233,0.04352 c 1.855426,0.301812 3.752606,-0.307501 5.074132,-1.629027 z m -7.888928,1.126943 3.756614,-3.756613 -1.502646,-1.502645 -3.756613,3.756613 1.502645,1.502645 z m 2.253968,-6.761903 0.375702,-0.375702 c 0.207004,-0.207004 0.207405,-0.543997 0,-0.751402 -0.207405,-0.207405 -0.544399,-0.207005 -0.751403,0 -0.207005,0.207004 -0.207405,0.543997 0,0.751402 l 0.375701,0.375702 z m 3.005291,3.00529 0.375701,0.375702 c 0.207405,0.207405 0.544399,0.207004 0.751403,0 0.207004,-0.207005 0.207405,-0.543998 0,-0.751403 -0.207405,-0.207405 -0.544398,-0.207004 -0.751403,0 l -0.375701,0.375701 z m -4.132235,6.386283 -0.375701,-0.375702 -4.507936,-4.507935 -0.375701,-0.375702 c -0.207325,-0.207325 -0.544398,-0.207004 -0.751403,0 -0.207004,0.207005 -0.207405,0.543998 0,0.751403 l 0.375702,0.375701 4.507935,4.507936 0.375702,0.375701 c 0.207405,0.207406 0.544398,0.207005 0.751402,0 0.207005,-0.207004 0.207325,-0.544077 0,-0.751402 z m -0.175829,4.728003 -0.307662,-2.769756 c -0.0811,-0.0053 -0.161564,-0.01427 -0.241545,-0.0319 -0.07092,0.257333 -0.200192,0.501523 -0.401907,0.703238 -0.28963,0.28963 -0.66453,0.438372 -1.044319,0.458327 -0.01955,0.380189 -0.168697,0.754688 -0.458327,1.044318 -0.209248,0.209248 -0.464337,0.341882 -0.732569,0.410242 l 1.228001,2.702117 1.958328,-2.51659 z m -9.49183,-0.319683 c 1.509378,0.154031 3.025967,-0.118288 4.2942,-0.765908 l -3.528612,-3.528612 c -0.64754,1.268954 -0.919939,2.785464 -0.765588,4.29452 z"
         style="fill:#f9f9f9" />
      <g
         id="g5018"
         style="fill:#f9f9f9">
        <rect
           x="-24.564651"
           y="10.624932"
           style="fill:#f9f9f9"
           width="1.0625306"
           height="5.8439751"
           id="rect4323"
           transform="matrix(-0.70710678,-0.70710678,-0.70710678,0.70710678,0,0)" />
        <rect
           x="-24.564651"
           y="17.531437"
           style="fill:#f9f9f9"
           width="1.0625306"
           height="1.0625306"
           id="rect4325"
           transform="matrix(-0.70710678,-0.70710678,-0.70710678,0.70710678,0,0)" />
        <rect
           x="-22.43959"
           y="10.093722"
           style="fill:#f9f9f9"
           width="1.0625306"
           height="4.7814445"
           id="rect4327"
           transform="matrix(-0.70710678,-0.70710678,-0.70710678,0.70710678,0,0)" />
        <rect
           x="-22.43959"
           y="15.937586"
           style="fill:#f9f9f9"
           width="1.0625306"
           height="1.5938526"
           id="rect4329"
           transform="matrix(-0.70710678,-0.70710678,-0.70710678,0.70710678,0,0)" />
      </g>
      <g
         id="g5024"
         style="fill:#f9f9f9">
        <rect
           x="-37.315022"
           y="10.624932"
           style="fill:#f9f9f9"
           width="1.0625306"
           height="6.9065061"
           id="rect4331"
           transform="matrix(-0.70710678,-0.70710678,-0.70710678,0.70710678,0,0)" />
        <rect
           x="-39.440083"
           y="10.093722"
           style="fill:#f9f9f9"
           width="1.0625306"
           height="5.3126531"
           id="rect4333"
           transform="matrix(-0.70710678,-0.70710678,-0.70710678,0.70710678,0,0)" />
        <rect
           x="-39.440083"
           y="16.468906"
           style="fill:#f9f9f9"
           width="1.0625306"
           height="1.0625306"
           id="rect4335"
           transform="matrix(-0.70710678,-0.70710678,-0.70710678,0.70710678,0,0)" />
      </g>
    </g>
  </g>
</svg>
