<?xml version="1.0" encoding="UTF-8" standalone="no"?>
<svg
   xmlns:dc="http://purl.org/dc/elements/1.1/"
   xmlns:cc="http://creativecommons.org/ns#"
   xmlns:rdf="http://www.w3.org/1999/02/22-rdf-syntax-ns#"
   xmlns:svg="http://www.w3.org/2000/svg"
   xmlns="http://www.w3.org/2000/svg"
   version="1.1"
   id="svg2"
   viewBox="0 0 149.99999 60"
   height="60"
   width="150">
  <defs
     id="defs4" />
  <metadata
     id="metadata7">
    <rdf:RDF>
      <cc:Work
         rdf:about="">
        <dc:format>image/svg+xml</dc:format>
        <dc:type
           rdf:resource="http://purl.org/dc/dcmitype/StillImage" />
        <dc:title></dc:title>
      </cc:Work>
    </rdf:RDF>
  </metadata>
  <g
     transform="matrix(0.75000009,0,0,0.75000009,0.0847684,-731.84559)"
     id="layer1">
    <g
       style="font-style:normal;font-weight:normal;font-size:26.43823814px;line-height:125%;font-family:sans-serif;letter-spacing:6.61098719px;word-spacing:0px;fill:#f9f9f9;fill-opacity:1;stroke:none;stroke-width:1px;stroke-linecap:butt;stroke-linejoin:miter;stroke-opacity:1"
       id="text4136">
      <path
         d="m 5.5282429,1025.2822 -0.090364,0 c -1.0585463,0 -1.8589106,-0.284 -2.543093,-0.8133 l -0.4130912,-0.3485 -2.59472939,4.4923 0.34854574,0.2324 c 1.43291025,1.0069 3.11109345,1.5104 5.16364055,1.5233 l 0.1678183,0 c 2.6592749,-0.026 4.9570951,-0.852 6.7901871,-2.4398 1.72982,-1.6395 2.607639,-3.6533 2.607639,-5.9899 l 0,-4.1051 -0.09036,-8.4683 -5.3185498,-0.026 0.090364,8.4554 0,3.9502 c 0,2.0267 -1.9880016,3.5371 -4.1180033,3.5371 z"
         style="font-style:normal;font-variant:normal;font-weight:bold;font-stretch:normal;font-size:26.43783951px;line-height:125%;font-family:'Lemon/Milk';-inkscape-font-specification:'Lemon/Milk, Bold';text-align:start;letter-spacing:6.61098719px;writing-mode:lr-tb;text-anchor:start;fill:#f9f9f9"
         id="path4137" />
      <path
         d="m 32.148336,1020.0282 1.329638,2.8142 -2.672184,0 1.342546,-2.8142 z m -5.137822,10.1207 1.549092,-3.1627 7.164551,0 1.549093,3.1627 5.525095,0 -10.05619,-20.7836 -1.200546,0 -10.030372,20.7836 5.499277,0 z"
         style="font-style:normal;font-variant:normal;font-weight:bold;font-stretch:normal;font-size:26.43783951px;line-height:125%;font-family:'Lemon/Milk';-inkscape-font-specification:'Lemon/Milk, Bold';text-align:start;letter-spacing:6.61098719px;writing-mode:lr-tb;text-anchor:start;fill:#f9f9f9"
         id="path4139" />
      <path
         d="m 56.289882,1030.1489 0,-20.8094 -5.086186,0 0,20.8094 5.086186,0 z"
         style="font-style:normal;font-variant:normal;font-weight:bold;font-stretch:normal;font-size:26.43783951px;line-height:125%;font-family:'Lemon/Milk';-inkscape-font-specification:'Lemon/Milk, Bold';text-align:start;letter-spacing:6.61098719px;writing-mode:lr-tb;text-anchor:start;fill:#f9f9f9"
         id="path4141" />
      <path
         d="m 65.508506,1009.2878 0,20.8611 5.086186,0 0,-7.6809 6.015641,7.668 6.002732,-7.668 0,7.6809 5.086186,0 0,-20.8611 -1.045637,0 -10.043281,13.2318 -10.069099,-13.2318 -1.032728,0 z"
         style="font-style:normal;font-variant:normal;font-weight:bold;font-stretch:normal;font-size:26.43783951px;line-height:125%;font-family:'Lemon/Milk';-inkscape-font-specification:'Lemon/Milk, Bold';text-align:start;letter-spacing:6.61098719px;writing-mode:lr-tb;text-anchor:start;fill:#f9f9f9"
         id="path4143" />
      <path
         d="m 96.904967,1030.1747 14.354923,0 0,-5.0603 -9.03637,0 0,-2.84 6.94509,0 0,-5.0733 -6.94509,0 0,-2.84 9.03637,0 0,-5.0733 -14.354923,0 0,20.8869 z"
         style="font-style:normal;font-variant:normal;font-weight:bold;font-stretch:normal;font-size:26.43783951px;line-height:125%;font-family:'Lemon/Milk';-inkscape-font-specification:'Lemon/Milk, Bold';text-align:start;letter-spacing:6.61098719px;writing-mode:lr-tb;text-anchor:start;fill:#f9f9f9"
         id="path4145" />
      <path
         d="m 119.67815,1030.1489 14.35492,0 0,-5.0603 -9.26873,0 0,-15.7491 -5.08619,0 0,20.8094 z"
         style="font-style:normal;font-variant:normal;font-weight:bold;font-stretch:normal;font-size:26.43783951px;line-height:125%;font-family:'Lemon/Milk';-inkscape-font-specification:'Lemon/Milk, Bold';text-align:start;letter-spacing:6.61098719px;writing-mode:lr-tb;text-anchor:start;fill:#f9f9f9"
         id="path4147" />
      <path
         d="m 147.29225,1030.1489 0,-20.9127 -5.09909,0 0,20.9127 5.09909,0 z m -4.71182,-23.4558 2.15582,1.6394 4.91837,-4.5827 -3.22728,-2.5302 -3.84691,5.4735 z"
         style="font-style:normal;font-variant:normal;font-weight:bold;font-stretch:normal;font-size:26.43783951px;line-height:125%;font-family:'Lemon/Milk';-inkscape-font-specification:'Lemon/Milk, Bold';text-align:start;letter-spacing:6.61098719px;writing-mode:lr-tb;text-anchor:start;fill:#f9f9f9"
         id="path4149" />
      <path
         d="m 167.44489,1020.0282 1.32964,2.8142 -2.67219,0 1.34255,-2.8142 z m -5.13782,10.1207 1.54909,-3.1627 7.16455,0 1.54909,3.1627 5.5251,0 -10.05619,-20.7836 -1.20055,0 -10.03037,20.7836 5.49928,0 z"
         style="font-style:normal;font-variant:normal;font-weight:bold;font-stretch:normal;font-size:26.43783951px;line-height:125%;font-family:'Lemon/Milk';-inkscape-font-specification:'Lemon/Milk, Bold';text-align:start;letter-spacing:6.61098719px;writing-mode:lr-tb;text-anchor:start;fill:#f9f9f9"
         id="path4151" />
      <path
         d="m 190.1277,1023.0231 -5.31855,1.0844 0.0645,0.4131 c 0.51637,3.3305 3.66619,5.8349 7.47437,5.8349 4.14382,0 7.53892,-2.8529 7.53892,-6.4288 0,-2.9949 -2.53019,-5.0087 -5.49928,-5.7574 -1.75564,-0.4518 -3.88564,-0.8907 -3.88564,-2.2591 0,-0.8778 0.852,-1.6007 1.85891,-1.6007 1.31673,0 1.846,0.9294 1.846,2.2074 l 5.34437,-1.0714 -0.0645,-0.4002 c -0.45181,-3.3048 -3.34345,-5.8478 -7.15164,-5.8478 -4.16964,0 -7.22909,2.8787 -7.22909,6.4287 0,2.9174 2.42691,5.0087 5.31854,5.8607 1.84601,0.5551 4.09219,0.7617 4.09219,2.1429 0,0.8004 -1.136,1.5878 -2.19455,1.5878 l -0.27109,0 -0.0129,0 c -0.994,-0.129 -1.91054,-0.8778 -1.91054,-1.6523 l 0,-0.5422 z"
         style="font-style:normal;font-variant:normal;font-weight:bold;font-stretch:normal;font-size:26.43783951px;line-height:125%;font-family:'Lemon/Milk';-inkscape-font-specification:'Lemon/Milk, Bold';text-align:start;letter-spacing:6.61098719px;writing-mode:lr-tb;text-anchor:start;fill:#f9f9f9"
         id="path4153" />
    </g>
  </g>
</svg>
