<?xml version="1.0" encoding="UTF-8" standalone="no"?>
<!-- Created with Inkscape (http://www.inkscape.org/) -->

<svg
   xmlns:dc="http://purl.org/dc/elements/1.1/"
   xmlns:cc="http://creativecommons.org/ns#"
   xmlns:rdf="http://www.w3.org/1999/02/22-rdf-syntax-ns#"
   xmlns:svg="http://www.w3.org/2000/svg"
   xmlns="http://www.w3.org/2000/svg"
   xmlns:sodipodi="http://sodipodi.sourceforge.net/DTD/sodipodi-0.dtd"
   xmlns:inkscape="http://www.inkscape.org/namespaces/inkscape"
   width="220"
   height="80"
   viewBox="0 0 220 80.000001"
   id="svg4305"
   version="1.1"
   inkscape:version="0.91 r13725"
   sodipodi:docname="logo.svg">
  <defs
     id="defs4307" />
  <sodipodi:namedview
     id="base"
     pagecolor="#ffffff"
     bordercolor="#666666"
     borderopacity="1.0"
     inkscape:pageopacity="0.0"
     inkscape:pageshadow="2"
     inkscape:zoom="1.8362676"
     inkscape:cx="163.95832"
     inkscape:cy="24.285714"
     inkscape:document-units="px"
     inkscape:current-layer="layer1"
     showgrid="false"
     units="px"
     inkscape:window-width="1366"
     inkscape:window-height="705"
     inkscape:window-x="-8"
     inkscape:window-y="-8"
     inkscape:window-maximized="1" />
  <metadata
     id="metadata4310">
    <rdf:RDF>
      <cc:Work
         rdf:about="">
        <dc:format>image/svg+xml</dc:format>
        <dc:type
           rdf:resource="http://purl.org/dc/dcmitype/StillImage" />
        <dc:title></dc:title>
      </cc:Work>
    </rdf:RDF>
  </metadata>
  <g
     inkscape:label="Layer 1"
     inkscape:groupmode="layer"
     id="layer1"
     transform="translate(0,-972.36216)">
    <g
       transform="matrix(1.9627133,0,0,1.9627133,-5.3371374,963.29433)"
       id="g4879">
      <path
         inkscape:connector-curvature="0"
         id="path4319"
         d="m 14.096975,23.989861 0.643533,-0.234012 2.253968,2.253968 2.253968,2.253968 -0.234012,0.643533 c -1.57934,4.343406 -6.163891,6.813033 -10.6602063,5.742749 l 0,0 0,0 C 7.2838614,30.153672 9.7534889,25.569121 14.096975,23.989861 Z"
         style="fill:#f9ba48" />
      <g
         style="fill:#000000"
         id="g5029">
        <path
           style="fill:#000000"
           d="m 9.2130175,21.622013 4.2449925,-3.301252 3.37418,0.37498 c 0.04961,-0.06916 0.100657,-0.137522 0.162286,-0.19915 0.489101,-0.489101 1.217503,-0.587114 1.809185,-0.30654 l 0.733291,-0.733291 c -0.255811,-2.103383 0.468024,-4.224717 1.96546,-5.722153 2.69274,-2.6927404 7.074534,-2.6927404 9.767274,0 2.69274,2.69274 2.69266,7.074454 -1.6e-4,9.767274 -1.497757,1.497757 -3.618771,2.221271 -5.722154,1.96546 l -0.73329,0.733291 c 0.280573,0.591682 0.182561,1.320084 -0.30654,1.809185 -0.06163,0.06163 -0.129989,0.112678 -0.19875,0.161885 l 0.37498,3.37418 -3.301251,4.244993 -2.213417,-4.869292 c -1.632634,0.927873 -3.657398,1.294519 -5.63496,0.99399 l -0.387321,-0.05826 -0.05866,-0.386921 c -0.300609,-1.977481 0.06572,-4.002726 0.99399,-5.63496 L 9.2130175,21.622013 Z M 16.618775,21.12618 c -0.207005,0.207004 -0.207406,0.543997 0,0.751403 l 4.507935,4.507935 c 0.207405,0.207405 0.544399,0.207005 0.751403,0 0.207004,-0.207004 0.207405,-0.543997 0,-0.751402 L 17.370177,21.12618 c -0.207485,-0.207325 -0.544398,-0.207005 -0.751402,0 z m 3.756613,6.761903 c 0.207004,-0.207004 0.207405,-0.543997 0,-0.751402 l -4.507936,-4.507936 c -0.207325,-0.207325 -0.544398,-0.207004 -0.751403,0 -0.207004,0.207004 -0.207405,0.543998 0,0.751403 l 4.507936,4.507935 c 0.207405,0.207406 0.544398,0.207005 0.751403,0 z m -9.123341,-6.506413 2.702117,1.228001 c 0.06876,-0.267831 0.201394,-0.52292 0.410643,-0.732169 0.28963,-0.289629 0.664529,-0.438371 1.044318,-0.458326 0.01955,-0.38019 0.168697,-0.754689 0.458327,-1.044319 0.201715,-0.201715 0.445905,-0.330982 0.703238,-0.401907 -0.01803,-0.07958 -0.02669,-0.160363 -0.0319,-0.241546 l -2.769756,-0.307661 -2.516991,1.957927 z m 19.266156,-0.631111 c 2.278411,-2.278411 2.278411,-5.986219 0,-8.264629 -2.278411,-2.278411 -5.986218,-2.278411 -8.264629,0 -1.321607,1.321606 -1.930919,3.218626 -1.629268,5.074052 l 0.04352,0.268232 -1.043997,1.043998 0.751322,0.751323 3.756694,-3.756694 -0.375702,-0.375701 c -0.621334,-0.621334 -0.621414,-1.632634 0,-2.254048 0.621414,-0.621414 1.632634,-0.621414 2.254048,0 0.621334,0.621334 0.621414,1.632634 0,2.254048 l -0.375701,0.375701 1.502645,1.502646 0.375701,-0.375702 c 0.621334,-0.621334 1.632634,-0.621414 2.254048,0 0.621414,0.621414 0.621414,1.632634 0,2.254048 -0.621414,0.621414 -1.632634,0.621414 -2.254048,0 l -0.375701,-0.375701 -3.756613,3.756613 0.751323,0.751323 1.043997,-1.043998 0.268233,0.04352 c 1.855426,0.301812 3.752606,-0.307501 5.074132,-1.629027 z m -7.888928,1.126943 3.756614,-3.756613 -1.502646,-1.502645 -3.756613,3.756613 1.502645,1.502645 z m 2.253968,-6.761903 0.375702,-0.375702 c 0.207004,-0.207004 0.207405,-0.543997 0,-0.751402 -0.207405,-0.207405 -0.544399,-0.207005 -0.751403,0 -0.207005,0.207004 -0.207405,0.543997 0,0.751402 l 0.375701,0.375702 z m 3.005291,3.00529 0.375701,0.375702 c 0.207405,0.207405 0.544399,0.207004 0.751403,0 0.207004,-0.207005 0.207405,-0.543998 0,-0.751403 -0.207405,-0.207405 -0.544398,-0.207004 -0.751403,0 l -0.375701,0.375701 z m -4.132235,6.386283 -0.375701,-0.375702 -4.507936,-4.507935 -0.375701,-0.375702 c -0.207325,-0.207325 -0.544398,-0.207004 -0.751403,0 -0.207004,0.207005 -0.207405,0.543998 0,0.751403 l 0.375702,0.375701 4.507935,4.507936 0.375702,0.375701 c 0.207405,0.207406 0.544398,0.207005 0.751402,0 0.207005,-0.207004 0.207325,-0.544077 0,-0.751402 z m -0.175829,4.728003 -0.307662,-2.769756 c -0.0811,-0.0053 -0.161564,-0.01427 -0.241545,-0.0319 -0.07092,0.257333 -0.200192,0.501523 -0.401907,0.703238 -0.28963,0.28963 -0.66453,0.438372 -1.044319,0.458327 -0.01955,0.380189 -0.168697,0.754688 -0.458327,1.044318 -0.209248,0.209248 -0.464337,0.341882 -0.732569,0.410242 l 1.228001,2.702117 1.958328,-2.51659 z m -9.49183,-0.319683 c 1.509378,0.154031 3.025967,-0.118288 4.2942,-0.765908 l -3.528612,-3.528612 c -0.64754,1.268954 -0.919939,2.785464 -0.765588,4.29452 z"
           id="path4321"
           inkscape:connector-curvature="0" />
        <g
           style="fill:#000000"
           id="g5018">
          <rect
             transform="matrix(-0.70710678,-0.70710678,-0.70710678,0.70710678,0,0)"
             id="rect4323"
             height="5.8439751"
             width="1.0625306"
             style="fill:#000000"
             y="10.624932"
             x="-24.564651" />
          <rect
             transform="matrix(-0.70710678,-0.70710678,-0.70710678,0.70710678,0,0)"
             id="rect4325"
             height="1.0625306"
             width="1.0625306"
             style="fill:#000000"
             y="17.531437"
             x="-24.564651" />
          <rect
             transform="matrix(-0.70710678,-0.70710678,-0.70710678,0.70710678,0,0)"
             id="rect4327"
             height="4.7814445"
             width="1.0625306"
             style="fill:#000000"
             y="10.093722"
             x="-22.43959" />
          <rect
             transform="matrix(-0.70710678,-0.70710678,-0.70710678,0.70710678,0,0)"
             id="rect4329"
             height="1.5938526"
             width="1.0625306"
             style="fill:#000000"
             y="15.937586"
             x="-22.43959" />
        </g>
        <g
           style="fill:#000000"
           id="g5024">
          <rect
             transform="matrix(-0.70710678,-0.70710678,-0.70710678,0.70710678,0,0)"
             id="rect4331"
             height="6.9065061"
             width="1.0625306"
             style="fill:#000000"
             y="10.624932"
             x="-37.315022" />
          <rect
             transform="matrix(-0.70710678,-0.70710678,-0.70710678,0.70710678,0,0)"
             id="rect4333"
             height="5.3126531"
             width="1.0625306"
             style="fill:#000000"
             y="10.093722"
             x="-39.440083" />
          <rect
             transform="matrix(-0.70710678,-0.70710678,-0.70710678,0.70710678,0,0)"
             id="rect4335"
             height="1.0625306"
             width="1.0625306"
             style="fill:#000000"
             y="16.468906"
             x="-39.440083" />
        </g>
      </g>
    </g>
    <g
       id="g5020"
       transform="matrix(1.1481481,0,0,1.1481481,-9.62962,-162.07532)">
      <g
         id="text4944"
         style="font-style:normal;font-weight:normal;font-size:20.03481102px;line-height:125%;font-family:sans-serif;letter-spacing:0px;word-spacing:0px;fill:#000000;fill-opacity:1;stroke:none;stroke-width:1px;stroke-linecap:butt;stroke-linejoin:miter;stroke-opacity:1">
        <path
           id="path4953"
           style="font-style:normal;font-variant:normal;font-weight:500;font-stretch:normal;font-family:GROBOLD;-inkscape-font-specification:'GROBOLD Medium';letter-spacing:2.67130804px"
           d="m 75.871967,1007.4323 q 0.120209,3.2055 0.160279,5.4294 0.0601,2.2038 0.0601,3.5261 0.02004,1.3023 -0.02003,2.0235 -0.02004,0.7013 -0.04007,0.9216 -0.02004,0.2004 -0.02004,0.2004 -0.120209,0.5009 -0.420731,1.162 -0.280488,0.6612 -0.781358,1.3223 -0.480835,0.6612 -1.182054,1.2422 -0.701218,0.581 -1.642854,0.9015 -0.941636,0.3206 -2.12369,0.3006 -1.182054,-0.02 -2.62456,-0.561 0,0 -0.420731,-0.2204 -0.420731,-0.2404 -0.881532,-0.8415 -0.460801,-0.621 -0.761323,-1.6829 -0.300522,-1.0618 -0.08014,-2.7247 l 4.407658,-1.4025 q -0.200348,1.0418 -0.200348,1.6629 0.02003,0.6011 0.120209,0.8816 0.120209,0.2604 0.280487,0.3205 0.160279,0.06 0.260453,0.02 0.120209,-0.04 0.140244,-0.04 0.02003,-0.02 0.200348,-0.1803 0.180313,-0.1603 0.360626,-0.581 0.180314,-0.4208 0.140244,-1.0819 l -0.661149,-9.5967 5.729956,-1.0017 z"
           inkscape:connector-curvature="0" />
        <path
           id="path4955"
           style="font-style:normal;font-variant:normal;font-weight:500;font-stretch:normal;font-family:GROBOLD;-inkscape-font-specification:'GROBOLD Medium';letter-spacing:2.67130804px"
           d="m 87.340123,1006.4906 10.117579,15.3868 -6.29093,2.3841 -1.682924,-2.8049 -4.207311,0.1403 -0.821427,3.0052 -6.030478,-1.9634 8.915491,-16.1481 z m -1.021775,11.9207 2.384142,-0.4207 -1.001741,-2.7247 -1.382401,3.1454 z"
           inkscape:connector-curvature="0" />
        <path
           id="path4957"
           style="font-style:normal;font-variant:normal;font-weight:500;font-stretch:normal;font-family:GROBOLD;-inkscape-font-specification:'GROBOLD Medium';letter-spacing:2.67130804px"
           d="m 105.97135,1007.5124 -0.82143,16.2082 -5.269155,0.601 0.200345,-16.108 5.89024,-0.7012 z"
           inkscape:connector-curvature="0" />
        <path
           id="path4959"
           style="font-style:normal;font-variant:normal;font-weight:500;font-stretch:normal;font-family:GROBOLD;-inkscape-font-specification:'GROBOLD Medium';letter-spacing:2.67130804px"
           d="m 113.45289,1006.6509 4.90853,6.1908 4.72821,-4.8885 4.90853,13.5034 -4.82839,3.9469 -2.18379,-6.5113 -2.72474,4.7683 -3.28571,-5.0488 -1.94337,5.9303 -4.66811,-3.0253 5.08884,-14.8658 z"
           inkscape:connector-curvature="0" />
        <path
           id="path4961"
           style="font-style:normal;font-variant:normal;font-weight:500;font-stretch:normal;font-family:GROBOLD;-inkscape-font-specification:'GROBOLD Medium';letter-spacing:2.67130804px"
           d="m 130.28505,1008.4741 11.05922,-0.8215 -0.62108,5.0689 -5.02874,0.2203 -0.02,0.9617 3.64634,-0.2604 -0.42073,3.506 -3.34581,0.2605 -0.0401,1.1019 5.72995,-0.5409 -0.10017,5.5296 -10.71863,0.581 -0.14024,-15.6071 z"
           inkscape:connector-curvature="0" />
        <path
           id="path4963"
           style="font-style:normal;font-variant:normal;font-weight:500;font-stretch:normal;font-family:GROBOLD;-inkscape-font-specification:'GROBOLD Medium';letter-spacing:2.67130804px"
           d="m 144.91307,1008.3138 6.03048,-0.8415 -0.52091,11.2796 4.90853,-1.0217 0.24042,5.6297 -10.51827,1.0619 -0.14025,-16.108 z"
           inkscape:connector-curvature="0" />
        <path
           id="path4965"
           style="font-style:normal;font-variant:normal;font-weight:500;font-stretch:normal;font-family:GROBOLD;-inkscape-font-specification:'GROBOLD Medium';letter-spacing:2.67130804px"
           d="m 164.86534,1007.5124 -0.82143,16.2082 -5.26915,0.601 0.20035,-16.108 5.89023,-0.7012 z"
           inkscape:connector-curvature="0" />
        <path
           id="path4967"
           style="font-style:normal;font-variant:normal;font-weight:500;font-stretch:normal;font-family:GROBOLD;-inkscape-font-specification:'GROBOLD Medium';letter-spacing:2.67130804px"
           d="m 176.03329,1006.4906 10.11758,15.3868 -6.29093,2.3841 -1.68293,-2.8049 -4.20731,0.1403 -0.82143,3.0052 -6.03047,-1.9634 8.91549,-16.1481 z m -1.02178,11.9207 2.38414,-0.4207 -1.00174,-2.7247 -1.3824,3.1454 z"
           inkscape:connector-curvature="0" />
        <path
           id="path4969"
           style="font-style:normal;font-variant:normal;font-weight:500;font-stretch:normal;font-family:GROBOLD;-inkscape-font-specification:'GROBOLD Medium';letter-spacing:2.67130804px"
           d="m 196.2673,1013.9235 q 0.62108,0.2805 1.2622,0.6412 0.66115,0.3606 1.18205,0.8815 0.54094,0.5209 0.88153,1.2622 0.36063,0.7212 0.4007,1.723 0.0601,1.4224 -0.4608,2.5244 -0.52091,1.0818 -1.48258,1.8432 -0.94163,0.7413 -2.26393,1.162 -1.3223,0.4007 -2.84494,0.4608 -0.70122,0.02 -1.44251,-0.08 -0.74129,-0.08 -1.46254,-0.2604 -0.72125,-0.1803 -1.40244,-0.4207 -0.68118,-0.2605 -1.28223,-0.541 l 1.52265,-4.2874 q 0.30052,0.1202 0.72125,0.3205 0.42073,0.1803 0.90157,0.3406 0.48083,0.1603 1.00174,0.2805 0.5209,0.1202 1.02178,0.1002 0.74128,-0.04 1.24215,-0.2605 0.52091,-0.2204 0.50087,-0.7413 -0.02,-0.3406 -0.36062,-0.5209 -0.32056,-0.1803 -0.78136,-0.3606 -0.30052,-0.08 -0.80139,-0.2204 -0.48084,-0.1402 -1.04181,-0.3806 -0.56098,-0.2405 -1.14199,-0.581 -0.56097,-0.3406 -1.04181,-0.8215 -0.4608,-0.4808 -0.78136,-1.1019 -0.30052,-0.6411 -0.32055,-1.4625 -0.0401,-1.4025 0.48083,-2.4843 0.52091,-1.102 1.42247,-1.8633 0.90157,-0.7813 2.10366,-1.182 1.20209,-0.4208 2.56446,-0.4809 1.26219,-0.06 2.50435,0.1403 1.24216,0.1803 2.32404,0.6211 l -1.18206,4.628 q -0.80139,-0.3406 -1.46254,-0.561 -0.66115,-0.2404 -1.54268,-0.3606 -0.26045,-0.04 -0.70122,-0.04 -0.42073,0 -0.84146,0.1002 -0.4007,0.08 -0.70122,0.2805 -0.30052,0.2003 -0.32056,0.561 0,0.1602 0.14025,0.2604 0.16028,0.08 0.36062,0.1403 0.22039,0.04 0.44077,0.08 0.22038,0.02 0.36063,0.04 0.58101,0.1202 0.90156,0.2003 0.34059,0.08 0.34059,0.08 0.56098,0.1202 1.08188,0.3405 z"
           inkscape:connector-curvature="0" />
      </g>
      <g
         transform="matrix(0.89638178,0,0,0.89638178,20.190745,105.89805)"
         id="text4948"
         style="font-style:normal;font-weight:normal;font-size:15px;line-height:125%;font-family:sans-serif;letter-spacing:0px;word-spacing:0px;fill:#000000;fill-opacity:1;stroke:none;stroke-width:1px;stroke-linecap:butt;stroke-linejoin:miter;stroke-opacity:1">
        <path
           inkscape:connector-curvature="0"
           id="path4972"
           style="font-size:10px"
           d="m 54.779068,1039.2921 -4.790039,0 0,-7.2705 4.790039,0 0,0.8594 -3.823242,0 0,1.9922 3.823242,0 0,0.8593 -3.823242,0 0,2.7002 3.823242,0 0,0.8594 z" />
        <path
           inkscape:connector-curvature="0"
           id="path4974"
           style="font-size:10px"
           d="m 59.134537,1036.5529 -3.046875,0 0,-0.8838 3.046875,0 0,0.8838 z" />
        <path
           inkscape:connector-curvature="0"
           id="path4976"
           style="font-size:10px"
           d="m 64.827896,1038.9503 q -0.458984,0.2197 -0.874023,0.3418 -0.410157,0.1221 -0.874024,0.1221 -0.59082,0 -1.083984,-0.1709 -0.493164,-0.1758 -0.844727,-0.5274 -0.356445,-0.3515 -0.551758,-0.8886 -0.195312,-0.5371 -0.195312,-1.2549 0,-1.3379 0.732422,-2.0996 0.737305,-0.7617 1.943359,-0.7617 0.46875,0 0.917969,0.1318 0.454102,0.1318 0.830078,0.3223 l 0,1.0205 -0.04883,0 q -0.419922,-0.3272 -0.869141,-0.503 -0.444336,-0.1757 -0.86914,-0.1757 -0.78125,0 -1.235352,0.5273 -0.449219,0.5225 -0.449219,1.5381 0,0.9863 0.439454,1.5185 0.444335,0.5274 1.245117,0.5274 0.27832,0 0.566406,-0.073 0.288086,-0.073 0.517578,-0.1904 0.200195,-0.1025 0.375977,-0.2148 0.175781,-0.1172 0.27832,-0.2002 l 0.04883,0 0,1.0107 z" />
        <path
           inkscape:connector-curvature="0"
           id="path4978"
           style="font-size:10px"
           d="m 70.657974,1036.5675 q 0,1.333 -0.683594,2.1045 -0.683593,0.7715 -1.831054,0.7715 -1.157227,0 -1.840821,-0.7715 -0.67871,-0.7715 -0.67871,-2.1045 0,-1.333 0.67871,-2.1045 0.683594,-0.7764 1.840821,-0.7764 1.147461,0 1.831054,0.7764 0.683594,0.7715 0.683594,2.1045 z m -0.947265,0 q 0,-1.0596 -0.415039,-1.5723 -0.41504,-0.5175 -1.152344,-0.5175 -0.747071,0 -1.16211,0.5175 -0.410156,0.5127 -0.410156,1.5723 0,1.0254 0.415039,1.5576 0.415039,0.5274 1.157227,0.5274 0.732422,0 1.147461,-0.5225 0.419922,-0.5273 0.419922,-1.5625 z" />
        <path
           inkscape:connector-curvature="0"
           id="path4980"
           style="font-size:10px"
           d="m 80.04274,1039.2921 -0.917969,0 0,-3.1055 q 0,-0.3515 -0.03418,-0.6787 -0.0293,-0.3271 -0.131836,-0.5224 -0.112304,-0.21 -0.322265,-0.3174 -0.209961,-0.1074 -0.605469,-0.1074 -0.385742,0 -0.771484,0.1953 -0.385742,0.1904 -0.771485,0.4883 0.01465,0.1123 0.02441,0.2636 0.0098,0.1465 0.0098,0.293 l 0,3.4912 -0.917969,0 0,-3.1055 q 0,-0.3613 -0.03418,-0.6835 -0.0293,-0.3272 -0.131836,-0.5225 -0.112305,-0.21 -0.322266,-0.3125 -0.209961,-0.1074 -0.605469,-0.1074 -0.375976,0 -0.756836,0.1855 -0.375976,0.1856 -0.751953,0.4736 l 0,4.0723 -0.917969,0 0,-5.4541 0.917969,0 0,0.6055 q 0.429688,-0.3565 0.854492,-0.5567 0.429688,-0.2002 0.913086,-0.2002 0.556641,0 0.942383,0.2344 0.390625,0.2344 0.581055,0.6494 0.55664,-0.4687 1.015625,-0.6738 0.458984,-0.21 0.981445,-0.21 0.898438,0 1.323242,0.5469 0.429688,0.542 0.429688,1.5186 l 0,3.54 z" />
        <path
           inkscape:connector-curvature="0"
           id="path4982"
           style="font-size:10px"
           d="m 89.769302,1039.2921 -0.917968,0 0,-3.1055 q 0,-0.3515 -0.03418,-0.6787 -0.0293,-0.3271 -0.131836,-0.5224 -0.112305,-0.21 -0.322266,-0.3174 -0.209961,-0.1074 -0.605468,-0.1074 -0.385743,0 -0.771485,0.1953 -0.385742,0.1904 -0.771484,0.4883 0.01465,0.1123 0.02441,0.2636 0.0098,0.1465 0.0098,0.293 l 0,3.4912 -0.917969,0 0,-3.1055 q 0,-0.3613 -0.03418,-0.6835 -0.0293,-0.3272 -0.131836,-0.5225 -0.112305,-0.21 -0.322265,-0.3125 -0.209961,-0.1074 -0.605469,-0.1074 -0.375977,0 -0.756836,0.1855 -0.375977,0.1856 -0.751953,0.4736 l 0,4.0723 -0.917969,0 0,-5.4541 0.917969,0 0,0.6055 q 0.429687,-0.3565 0.854492,-0.5567 0.429687,-0.2002 0.913086,-0.2002 0.55664,0 0.942383,0.2344 0.390625,0.2344 0.581054,0.6494 0.556641,-0.4687 1.015625,-0.6738 0.458985,-0.21 0.981446,-0.21 0.898437,0 1.323242,0.5469 0.429687,0.542 0.429687,1.5186 l 0,3.54 z" />
        <path
           inkscape:connector-curvature="0"
           id="path4984"
           style="font-size:10px"
           d="m 96.10231,1036.6603 -4.018555,0 q 0,0.5029 0.151368,0.8789 0.151367,0.3711 0.415039,0.6103 0.253906,0.2344 0.600586,0.3516 0.351562,0.1172 0.771484,0.1172 0.556641,0 1.118164,-0.2197 0.566406,-0.2246 0.805664,-0.4395 l 0.04883,0 0,1.001 q -0.463867,0.1953 -0.947265,0.3271 -0.483399,0.1319 -1.015625,0.1319 -1.357422,0 -2.119141,-0.7325 -0.761719,-0.7373 -0.761719,-2.0898 0,-1.3379 0.727539,-2.124 0.732422,-0.7862 1.923828,-0.7862 1.103516,0 1.699219,0.6446 0.600586,0.6445 0.600586,1.831 l 0,0.4981 z m -0.893555,-0.7031 q -0.0049,-0.7227 -0.36621,-1.1182 -0.356446,-0.3955 -1.088868,-0.3955 -0.737304,0 -1.176757,0.4346 -0.434571,0.4345 -0.493165,1.0791 l 3.125,0 z" />
        <path
           inkscape:connector-curvature="0"
           id="path4986"
           style="font-size:10px"
           d="m 100.89723,1034.839 -0.0488,0 q -0.20507,-0.049 -0.40039,-0.068 -0.19043,-0.024 -0.454098,-0.024 -0.424805,0 -0.820313,0.1904 -0.395508,0.1856 -0.761719,0.4834 l 0,3.8721 -0.917968,0 0,-5.4541 0.917968,0 0,0.8057 q 0.546875,-0.4395 0.961915,-0.6201 0.419921,-0.1856 0.854495,-0.1856 0.23925,0 0.34668,0.015 0.10742,0.01 0.32226,0.044 l 0,0.9424 z" />
        <path
           inkscape:connector-curvature="0"
           id="path4988"
           style="font-size:10px"
           d="m 105.80446,1038.9503 q -0.45899,0.2197 -0.87402,0.3418 -0.41016,0.1221 -0.87403,0.1221 -0.59082,0 -1.08398,-0.1709 -0.49317,-0.1758 -0.84473,-0.5274 -0.35644,-0.3515 -0.55176,-0.8886 -0.19531,-0.5371 -0.19531,-1.2549 0,-1.3379 0.73242,-2.0996 0.73731,-0.7617 1.94336,-0.7617 0.46875,0 0.91797,0.1318 0.4541,0.1318 0.83008,0.3223 l 0,1.0205 -0.0488,0 q -0.41992,-0.3272 -0.86914,-0.503 -0.44434,-0.1757 -0.86914,-0.1757 -0.78125,0 -1.23535,0.5273 -0.44922,0.5225 -0.44922,1.5381 0,0.9863 0.43945,1.5185 0.44434,0.5274 1.24512,0.5274 0.27832,0 0.56641,-0.073 0.28808,-0.073 0.51757,-0.1904 0.2002,-0.1025 0.37598,-0.2148 0.17578,-0.1172 0.27832,-0.2002 l 0.0488,0 0,1.0107 z" />
        <path
           inkscape:connector-curvature="0"
           id="path4990"
           style="font-size:10px"
           d="m 111.55153,1036.6603 -4.01856,0 q 0,0.5029 0.15137,0.8789 0.15137,0.3711 0.41504,0.6103 0.25391,0.2344 0.60059,0.3516 0.35156,0.1172 0.77148,0.1172 0.55664,0 1.11816,-0.2197 0.56641,-0.2246 0.80567,-0.4395 l 0.0488,0 0,1.001 q -0.46387,0.1953 -0.94727,0.3271 -0.4834,0.1319 -1.01562,0.1319 -1.35743,0 -2.11914,-0.7325 -0.76172,-0.7373 -0.76172,-2.0898 0,-1.3379 0.72754,-2.124 0.73242,-0.7862 1.92382,-0.7862 1.10352,0 1.69922,0.6446 0.60059,0.6445 0.60059,1.831 l 0,0.4981 z m -0.89356,-0.7031 q -0.005,-0.7227 -0.36621,-1.1182 -0.35644,-0.3955 -1.08886,-0.3955 -0.73731,0 -1.17676,0.4346 -0.43457,0.4345 -0.49317,1.0791 l 3.125,0 z" />
        <path
           inkscape:connector-curvature="0"
           id="path4992"
           style="font-size:10px"
           d="m 121.17555,1033.838 -3.18359,7.4658 -0.98145,0 1.01563,-2.2754 -2.17285,-5.1904 0.99609,0 1.67481,4.043 1.68945,-4.043 0.96191,0 z" />
        <path
           inkscape:connector-curvature="0"
           id="path4994"
           style="font-size:10px"
           d="m 132.10817,1035.6642 q 0,0.9912 -0.43457,1.7969 -0.42969,0.8056 -1.14746,1.25 -0.49805,0.3076 -1.11328,0.4443 -0.61035,0.1367 -1.61133,0.1367 l -1.83594,0 0,-7.2705 1.81641,0 q 1.06445,0 1.68945,0.1563 0.62988,0.1513 1.06445,0.4199 0.74219,0.4638 1.15723,1.2353 0.41504,0.7715 0.41504,1.8311 z m -1.01074,-0.015 q 0,-0.8545 -0.29785,-1.4404 -0.29786,-0.5859 -0.88868,-0.9228 -0.42968,-0.2442 -0.91308,-0.337 -0.4834,-0.098 -1.15723,-0.098 l -0.9082,0 0,5.6103 0.9082,0 q 0.69824,0 1.21582,-0.1025 0.52246,-0.1025 0.95703,-0.3809 0.542,-0.3466 0.81055,-0.913 0.27344,-0.5665 0.27344,-1.4161 z" />
        <path
           inkscape:connector-curvature="0"
           id="path4996"
           style="font-size:10px"
           d="m 138.17262,1036.6603 -4.01855,0 q 0,0.5029 0.15137,0.8789 0.15136,0.3711 0.41503,0.6103 0.25391,0.2344 0.60059,0.3516 0.35156,0.1172 0.77148,0.1172 0.55665,0 1.11817,-0.2197 0.5664,-0.2246 0.80566,-0.4395 l 0.0488,0 0,1.001 q -0.46387,0.1953 -0.94726,0.3271 -0.4834,0.1319 -1.01563,0.1319 -1.35742,0 -2.11914,-0.7325 -0.76172,-0.7373 -0.76172,-2.0898 0,-1.3379 0.72754,-2.124 0.73242,-0.7862 1.92383,-0.7862 1.10351,0 1.69922,0.6446 0.60058,0.6445 0.60058,1.831 l 0,0.4981 z m -0.89355,-0.7031 q -0.005,-0.7227 -0.36621,-1.1182 -0.35645,-0.3955 -1.08887,-0.3955 -0.7373,0 -1.17676,0.4346 -0.43457,0.4345 -0.49316,1.0791 l 3.125,0 z" />
        <path
           inkscape:connector-curvature="0"
           id="path4998"
           style="font-size:10px"
           d="m 143.46071,1037.7198 q 0,0.7471 -0.62012,1.2256 -0.61523,0.4786 -1.68457,0.4786 -0.60547,0 -1.11328,-0.1417 -0.50293,-0.1464 -0.84473,-0.3173 l 0,-1.0303 0.0488,0 q 0.43457,0.3271 0.9668,0.5225 0.53222,0.1904 1.02051,0.1904 0.60546,0 0.94726,-0.1953 0.3418,-0.1953 0.3418,-0.6153 0,-0.3222 -0.18555,-0.4882 -0.18555,-0.1661 -0.71289,-0.2832 -0.19531,-0.044 -0.51269,-0.1026 -0.3125,-0.059 -0.57129,-0.1269 -0.71778,-0.1905 -1.02051,-0.5567 -0.29785,-0.3711 -0.29785,-0.9082 0,-0.3369 0.13672,-0.6347 0.1416,-0.2979 0.4248,-0.5323 0.27344,-0.2295 0.69336,-0.3613 0.4248,-0.1367 0.94727,-0.1367 0.48828,0 0.98632,0.122 0.50293,0.1172 0.83496,0.2881 l 0,0.9815 -0.0488,0 q -0.35157,-0.2588 -0.8545,-0.4346 -0.50293,-0.1807 -0.98632,-0.1807 -0.50293,0 -0.84961,0.1954 -0.34668,0.1904 -0.34668,0.5712 0,0.337 0.20996,0.5079 0.20508,0.1709 0.66406,0.2783 0.25391,0.059 0.56641,0.1172 0.31738,0.059 0.52734,0.1074 0.63965,0.1465 0.98633,0.5029 0.34668,0.3613 0.34668,0.957 z" />
        <path
           inkscape:connector-curvature="0"
           id="path5000"
           style="font-size:10px"
           d="m 149.01735,1039.2921 -0.91309,0 0,-0.581 q -0.12207,0.083 -0.33203,0.2343 -0.20508,0.1465 -0.40039,0.2344 -0.22949,0.1123 -0.52734,0.1856 -0.29785,0.078 -0.69824,0.078 -0.73731,0 -1.25,-0.4883 -0.5127,-0.4883 -0.5127,-1.2451 0,-0.6201 0.26367,-1.001 0.26856,-0.3857 0.76172,-0.6055 0.49805,-0.2197 1.19629,-0.2978 0.69824,-0.078 1.49902,-0.1172 l 0,-0.1416 q 0,-0.3125 -0.1123,-0.5176 -0.10742,-0.2051 -0.3125,-0.3222 -0.19531,-0.1124 -0.46875,-0.1514 -0.27344,-0.039 -0.57129,-0.039 -0.36133,0 -0.80566,0.098 -0.44434,0.093 -0.91797,0.2734 l -0.0488,0 0,-0.9326 q 0.26855,-0.073 0.77637,-0.1611 0.50781,-0.088 1.00097,-0.088 0.57617,0 1.00098,0.098 0.42969,0.093 0.74219,0.3223 0.30761,0.2246 0.46875,0.5811 0.16113,0.3564 0.16113,0.8837 l 0,3.7012 z m -0.91309,-1.3428 0,-1.5185 q -0.41992,0.024 -0.99121,0.073 -0.5664,0.049 -0.89844,0.1416 -0.3955,0.1123 -0.63964,0.3516 -0.24414,0.2344 -0.24414,0.6494 0,0.4688 0.2832,0.708 0.2832,0.2344 0.86426,0.2344 0.4834,0 0.88379,-0.1856 0.40039,-0.1904 0.74218,-0.4541 z" />
        <path
           inkscape:connector-curvature="0"
           id="path5002"
           style="font-size:10px"
           d="m 154.19801,1034.839 -0.0488,0 q -0.20508,-0.049 -0.4004,-0.068 -0.19043,-0.024 -0.4541,-0.024 -0.4248,0 -0.82031,0.1904 -0.39551,0.1856 -0.76172,0.4834 l 0,3.8721 -0.91797,0 0,-5.4541 0.91797,0 0,0.8057 q 0.54688,-0.4395 0.96192,-0.6201 0.41992,-0.1856 0.85449,-0.1856 0.23926,0 0.34668,0.015 0.10742,0.01 0.32226,0.044 l 0,0.9424 z" />
        <path
           inkscape:connector-curvature="0"
           id="path5004"
           style="font-size:10px"
           d="m 158.47536,1034.839 -0.0488,0 q -0.20508,-0.049 -0.40039,-0.068 -0.19043,-0.024 -0.4541,-0.024 -0.42481,0 -0.82032,0.1904 -0.3955,0.1856 -0.76171,0.4834 l 0,3.8721 -0.91797,0 0,-5.4541 0.91797,0 0,0.8057 q 0.54687,-0.4395 0.96191,-0.6201 0.41992,-0.1856 0.85449,-0.1856 0.23926,0 0.34668,0.015 0.10742,0.01 0.32227,0.044 l 0,0.9424 z" />
        <path
           inkscape:connector-curvature="0"
           id="path5006"
           style="font-size:10px"
           d="m 163.99782,1036.5675 q 0,1.333 -0.6836,2.1045 -0.68359,0.7715 -1.83105,0.7715 -1.15723,0 -1.84082,-0.7715 -0.67871,-0.7715 -0.67871,-2.1045 0,-1.333 0.67871,-2.1045 0.68359,-0.7764 1.84082,-0.7764 1.14746,0 1.83105,0.7764 0.6836,0.7715 0.6836,2.1045 z m -0.94727,0 q 0,-1.0596 -0.41504,-1.5723 -0.41504,-0.5175 -1.15234,-0.5175 -0.74707,0 -1.16211,0.5175 -0.41016,0.5127 -0.41016,1.5723 0,1.0254 0.41504,1.5576 0.41504,0.5274 1.15723,0.5274 0.73242,0 1.14746,-0.5225 0.41992,-0.5273 0.41992,-1.5625 z" />
        <path
           inkscape:connector-curvature="0"
           id="path5008"
           style="font-size:10px"
           d="m 166.35133,1039.2921 -0.91797,0 0,-7.5976 0.91797,0 0,7.5976 z" />
        <path
           inkscape:connector-curvature="0"
           id="path5010"
           style="font-size:10px"
           d="m 169.06618,1039.2921 -0.91797,0 0,-7.5976 0.91797,0 0,7.5976 z" />
        <path
           inkscape:connector-curvature="0"
           id="path5012"
           style="font-size:10px"
           d="m 175.50172,1036.5675 q 0,1.333 -0.68359,2.1045 -0.68359,0.7715 -1.83105,0.7715 -1.15723,0 -1.84082,-0.7715 -0.67872,-0.7715 -0.67872,-2.1045 0,-1.333 0.67872,-2.1045 0.68359,-0.7764 1.84082,-0.7764 1.14746,0 1.83105,0.7764 0.68359,0.7715 0.68359,2.1045 z m -0.94726,0 q 0,-1.0596 -0.41504,-1.5723 -0.41504,-0.5175 -1.15234,-0.5175 -0.74707,0 -1.16211,0.5175 -0.41016,0.5127 -0.41016,1.5723 0,1.0254 0.41504,1.5576 0.41504,0.5274 1.15723,0.5274 0.73242,0 1.14746,-0.5225 0.41992,-0.5273 0.41992,-1.5625 z" />
        <path
           inkscape:connector-curvature="0"
           id="path5014"
           style="font-size:10px"
           d="m 188.97829,1032.0216 -1.88965,7.2705 -1.08887,0 -1.52832,-6.0351 -1.49414,6.0351 -1.06445,0 -1.92383,-7.2705 0.99121,0 1.52832,6.0449 1.50391,-6.0449 0.98144,0 1.51856,6.1035 1.51855,-6.1035 0.94727,0 z" />
        <path
           inkscape:connector-curvature="0"
           id="path5016"
           style="font-size:10px"
           d="m 194.40309,1036.6603 -4.01855,0 q 0,0.5029 0.15136,0.8789 0.15137,0.3711 0.41504,0.6103 0.25391,0.2344 0.60059,0.3516 0.35156,0.1172 0.77148,0.1172 0.55664,0 1.11817,-0.2197 0.5664,-0.2246 0.80566,-0.4395 l 0.0488,0 0,1.001 q -0.46387,0.1953 -0.94727,0.3271 -0.48339,0.1319 -1.01562,0.1319 -1.35742,0 -2.11914,-0.7325 -0.76172,-0.7373 -0.76172,-2.0898 0,-1.3379 0.72754,-2.124 0.73242,-0.7862 1.92383,-0.7862 1.10351,0 1.69922,0.6446 0.60058,0.6445 0.60058,1.831 l 0,0.4981 z m -0.89355,-0.7031 q -0.005,-0.7227 -0.36621,-1.1182 -0.35645,-0.3955 -1.08887,-0.3955 -0.73731,0 -1.17676,0.4346 -0.43457,0.4345 -0.49316,1.0791 l 3.125,0 z" />
        <path
           inkscape:connector-curvature="0"
           id="path5018"
           style="font-size:10px"
           d="m 200.5945,1036.5236 q 0,0.6836 -0.19531,1.2304 -0.19043,0.5469 -0.51758,0.918 -0.34668,0.3857 -0.76172,0.5811 -0.41504,0.1904 -0.91309,0.1904 -0.46386,0 -0.81054,-0.1123 -0.34668,-0.1074 -0.6836,-0.293 l -0.0586,0.2539 -0.85938,0 0,-7.5976 0.91797,0 0,2.7148 q 0.38574,-0.3174 0.82031,-0.5176 0.43457,-0.2051 0.97657,-0.2051 0.96679,0 1.52343,0.7422 0.56153,0.7422 0.56153,2.0948 z m -0.94727,0.024 q 0,-0.9766 -0.32226,-1.4795 -0.32227,-0.5078 -1.04004,-0.5078 -0.40039,0 -0.81055,0.1758 -0.41016,0.1708 -0.76172,0.4443 l 0,3.125 q 0.39063,0.1758 0.66895,0.2441 0.2832,0.068 0.63965,0.068 0.76171,0 1.1914,-0.4981 0.43457,-0.5029 0.43457,-1.5722 z" />
      </g>
    </g>
  </g>
</svg>
